<svg xmlns="http://www.w3.org/2000/svg" viewBox="0 0 512 512" style="enable-background:new 0 0 512 512" xml:space="preserve"><path style="fill:#26443e" d="M161.105 484.404c0 15.241-12.355 27.595-27.591 27.595H78.286c-15.237 0-27.591-12.355-27.591-27.595 0-15.237 12.355-27.591 27.591-27.591h55.223c15.241 0 27.596 12.351 27.596 27.591zM461.301 484.404c0 15.241-12.355 27.595-27.591 27.595h-55.223c-15.237 0-27.591-12.355-27.591-27.595 0-15.237 12.355-27.591 27.591-27.591h55.223c15.237 0 27.591 12.351 27.591 27.591z"/><path style="fill:#416b62" d="M505.264 476.013a7.593 7.593 0 0 1-7.592 7.592H14.329a7.594 7.594 0 0 1-7.592-7.592V7.592C6.732 3.398 10.135 0 14.329 0h483.339a7.59 7.59 0 0 1 7.592 7.592v468.421h.004z"/><g style="opacity:.6"><path style="fill:#65a598" d="M459.231 414.659c0 16.774-13.598 30.372-30.372 30.372H83.138c-16.774 0-30.372-13.598-30.372-30.372V68.942c0-16.774 13.598-30.372 30.372-30.372h345.721c16.774 0 30.372 13.598 30.372 30.372v345.717z"/></g><path style="fill:#416b62" d="M246.814 116.142h18.389v101.995h-18.389zM222.455 247.649l-74.08 62.799 17.92 8.44 74.081-62.799zM289.541 247.649l-17.921 8.44 74.081 62.799 17.92-8.44z"/><path style="fill:#26443e" d="M256 108.893c-73.402 0-132.908 59.506-132.908 132.908S182.598 374.709 256 374.709s132.908-59.506 132.908-132.908S329.398 108.893 256 108.893zm0 231.621c-54.521 0-98.717-44.192-98.717-98.713s44.196-98.713 98.717-98.713c54.517 0 98.713 44.192 98.713 98.713S310.517 340.514 256 340.514z"/><path style="fill:#26443e" d="M256 208.284c-18.514 0-33.521 15.007-33.521 33.521s15.007 33.521 33.521 33.521c18.51 0 33.521-15.007 33.521-33.521S274.51 208.284 256 208.284z"/><g style="opacity:.5"><path style="fill:#5f7c77" d="M256 225.232c-9.154 0-16.569 7.419-16.569 16.569S246.85 258.37 256 258.37c9.15 0 16.569-7.419 16.569-16.569S265.15 225.232 256 225.232z"/></g><path style="fill:#26443e" d="M64.575 202.476c0 6.523-5.287 11.81-11.81 11.81-6.522 0-11.81-5.287-11.81-11.81v-73.572c0-6.518 5.287-11.81 11.81-11.81 6.522 0 11.81 5.291 11.81 11.81v73.572zM64.575 383.092c0 6.522-5.287 11.814-11.81 11.814-6.522 0-11.81-5.291-11.81-11.814v-73.568c0-6.522 5.287-11.81 11.81-11.81 6.522 0 11.81 5.287 11.81 11.81v73.568z"/><g xmlns="http://www.w3.org/2000/svg"><path d="M420 420h15v15h-15zM405 420h15v15h-15z"/><path d="M390 420h15.015v15H390zM450 405h15v15h-15zM435 405h15v15h-15z"/><path style="fill:#df7126" d="M60 126h1v1h-1zM59 126h1v1h-1z" transform="matrix(15 0 0 15 -480 -1485)"/><path style="fill:#df7126" d="M58 126h1.001v1H58z" transform="matrix(15 0 0 15 -480 -1485)"/><path d="M375 405h15v15h-15zM360 405h15v15h-15zM480 390h15v15h-15zM465 390h15v15h-15z"/><path style="fill:#df7126" d="M62 127h1v1h-1zM61 127h1v1h-1zM60 127h1v1h-1z" transform="matrix(15 0 0 15 -480 -1515)"/><path style="fill:#fbf236" d="M59 127h1v1h-1z" transform="matrix(15 0 0 15 -480 -1515)"/><path style="fill:#fbf236" d="M58 127h1.001v1H58z" transform="matrix(15 0 0 15 -480 -1515)"/><path style="fill:#df7126" d="M57 127h1v1h-1zM56 127h1v1h-1z" transform="matrix(15 0 0 15 -480 -1515)"/><path d="M345 390h15v15h-15zM330 390h15v15h-15zM510 375h15v15h-15zM495 375h15v15h-15z"/><path style="fill:#df7126" d="M64 128h1v1h-1zM63 128h1v1h-1zM62 128h1v1h-1zM61 128h1v1h-1z" transform="matrix(15 0 0 15 -480 -1545)"/><path style="fill:#fbf236" d="M60 128h1v1h-1zM59 128h1v1h-1z" transform="matrix(15 0 0 15 -480 -1545)"/><path style="fill:#fbf236" d="M58 128h1.001v1H58zM57 128h1v1h-1zM56 128h1v1h-1z" transform="matrix(15 0 0 15 -480 -1545)"/><path style="fill:#df7126" d="M55 128h1v1h-1zM54 128h1v1h-1z" transform="matrix(15 0 0 15 -480 -1545)"/><path d="M315 375h15v15h-15zM300 375h15v15h-15zM540 360h15v15h-15z"/><path d="M525 360h15.015v15H525z"/><path style="fill:#df7126" d="M66 129h1v1h-1zM65 129h1v1h-1zM64 129h1v1h-1zM63 129h1v1h-1z" transform="matrix(15 0 0 15 -480 -1575)"/><path style="fill:#fbf236" d="M62 129h1v1h-1zM61 129h1v1h-1zM60 129h1v1h-1zM59 129h1v1h-1z" transform="matrix(15 0 0 15 -480 -1575)"/><path style="fill:#fbf236" d="M58 129h1.001v1H58zM57 129h1v1h-1zM56 129h1v1h-1zM55 129h1v1h-1zM54 129h1v1h-1z" transform="matrix(15 0 0 15 -480 -1575)"/><path style="fill:#df7126" d="M53 129h1v1h-1zM52 129h1v1h-1z" transform="matrix(15 0 0 15 -480 -1575)"/><path d="M285 360h15v15h-15zM270 360h15v15h-15zM555 344.985h15V360h-15z"/><path style="fill:#df7126" d="M68 130h1v1.001h-1z" transform="matrix(15 0 0 15 -480 -1605.015)"/><path style="fill:#df7126" d="M67 130h1.001v1.001H67zM66 130h1v1.001h-1zM65 130h1v1.001h-1z" transform="matrix(15 0 0 15 -480 -1605.015)"/><path style="fill:#fff" d="M64 130h1v1.001h-1zM63 130h1v1.001h-1z" transform="matrix(15 0 0 15 -480 -1605.015)"/><path style="fill:#fbf236" d="M62 130h1v1.001h-1zM61 130h1v1.001h-1zM60 130h1v1.001h-1zM59 130h1v1.001h-1z" transform="matrix(15 0 0 15 -480 -1605.015)"/><path style="fill:#fbf236" d="M58 130h1.001v1.001H58zM57 130h1v1.001h-1zM56 130h1v1.001h-1zM55 130h1v1.001h-1zM54 130h1v1.001h-1zM53 130h1v1.001h-1zM52 130h1v1.001h-1z" transform="matrix(15 0 0 15 -480 -1605.015)"/><path style="fill:#df7126" d="M51 130h1v1.001h-1zM50 130h1v1.001h-1z" transform="matrix(15 0 0 15 -480 -1605.015)"/><path d="M255 344.985h15.015V360H255zM570 330h15v15h-15z"/><path style="fill:#df7126" d="M69 131h1v1h-1zM68 131h1v1h-1z" transform="matrix(15 0 0 15 -480 -1635)"/><path style="fill:#df7126" d="M67 131h1.001v1H67z" transform="matrix(15 0 0 15 -480 -1635)"/><path style="fill:#fbf236" d="M66 131h1v1h-1zM65 131h1v1h-1z" transform="matrix(15 0 0 15 -480 -1635)"/><path style="fill:#fff" d="M64 131h1v1h-1zM63 131h1v1h-1zM62 131h1v1h-1z" transform="matrix(15 0 0 15 -480 -1635)"/><path style="fill:#fbf236" d="M61 131h1v1h-1zM60 131h1v1h-1zM59 131h1v1h-1z" transform="matrix(15 0 0 15 -480 -1635)"/><path style="fill:#fbf236" d="M58 131h1.001v1H58zM57 131h1v1h-1zM56 131h1v1h-1z" transform="matrix(15 0 0 15 -480 -1635)"/><path d="M345 330h15v15h-15z"/><path style="fill:#fbf236" d="M54 131h1v1h-1zM53 131h1v1h-1zM52 131h1v1h-1zM51 131h1v1h-1zM50 131h1v1h-1z" transform="matrix(15 0 0 15 -480 -1635)"/><path style="fill:#df7126" d="M49 131h1.001v1H49z" transform="matrix(15 0 0 15 -480 -1635)"/><path d="M240 330h15v15h-15zM570 315h15v15h-15z"/><path style="fill:#df7126" d="M69 132h1v1h-1zM68 132h1v1h-1z" transform="matrix(15 0 0 15 -480 -1665)"/><path style="fill:#fff" d="M67 132h1.001v1H67z" transform="matrix(15 0 0 15 -480 -1665)"/><path style="fill:#fbf236" d="M66 132h1v1h-1z" transform="matrix(15 0 0 15 -480 -1665)"/><path d="M495 315h15v15h-15z"/><path style="fill:#fbf236" d="M64 132h1v1h-1z" transform="matrix(15 0 0 15 -480 -1665)"/><path style="fill:#fff" d="M63 132h1v1h-1zM62 132h1v1h-1zM61 132h1v1h-1z" transform="matrix(15 0 0 15 -480 -1665)"/><path style="fill:#fbf236" d="M60 132h1v1h-1zM59 132h1v1h-1z" transform="matrix(15 0 0 15 -480 -1665)"/><path style="fill:#fbf236" d="M58 132h1.001v1H58zM57 132h1v1h-1zM56 132h1v1h-1z" transform="matrix(15 0 0 15 -480 -1665)"/><path d="M345 315h15v15h-15z"/><path style="fill:#fbf236" d="M54 132h1v1h-1zM53 132h1v1h-1zM52 132h1v1h-1zM51 132h1v1h-1zM50 132h1v1h-1z" transform="matrix(15 0 0 15 -480 -1665)"/><path style="fill:#fff" d="M49 132h1.001v1H49z" transform="matrix(15 0 0 15 -480 -1665)"/><path d="M240 315h15v15h-15zM570 300h15v15h-15z"/><path style="fill:#df7126" d="M69 133h1v1h-1zM68 133h1v1h-1z" transform="matrix(15 0 0 15 -480 -1695)"/><path style="fill:#fff" d="M67 133h1.001v1H67zM66 133h1v1h-1z" transform="matrix(15 0 0 15 -480 -1695)"/><path d="M495 300h15v15h-15z"/><path style="fill:#fbf236" d="M64 133h1v1h-1zM63 133h1v1h-1z" transform="matrix(15 0 0 15 -480 -1695)"/><path style="fill:#fff" d="M62 133h1v1h-1zM61 133h1v1h-1zM60 133h1v1h-1z" transform="matrix(15 0 0 15 -480 -1695)"/><path style="fill:#fbf236" d="M59 133h1v1h-1z" transform="matrix(15 0 0 15 -480 -1695)"/><path style="fill:#fbf236" d="M58 133h1.001v1H58zM57 133h1v1h-1zM56 133h1v1h-1z" transform="matrix(15 0 0 15 -480 -1695)"/><path d="M345 300h15v15h-15z"/><path style="fill:#fbf236" d="M54 133h1v1h-1zM53 133h1v1h-1zM52 133h1v1h-1zM51 133h1v1h-1z" transform="matrix(15 0 0 15 -480 -1695)"/><path d="M270 300h15v15h-15z"/><path style="fill:#fff" d="M49 133h1.001v1H49z" transform="matrix(15 0 0 15 -480 -1695)"/><path d="M240 300h15v15h-15zM570 285h15v15h-15z"/><path style="fill:#df7126" d="M69 134h1v1h-1zM68 134h1v1h-1z" transform="matrix(15 0 0 15 -480 -1725)"/><path style="fill:#fbf236" d="M67 134h1.001v1H67z" transform="matrix(15 0 0 15 -480 -1725)"/><path style="fill:#fff" d="M66 134h1v1h-1z" transform="matrix(15 0 0 15 -480 -1725)"/><path d="M495 285h15v15h-15z"/><path style="fill:#fbf236" d="M64 134h1v1h-1zM63 134h1v1h-1zM62 134h1v1h-1z" transform="matrix(15 0 0 15 -480 -1725)"/><path style="fill:#fff" d="M61 134h1v1h-1zM60 134h1v1h-1zM59 134h1v1h-1z" transform="matrix(15 0 0 15 -480 -1725)"/><path style="fill:#fbf236" d="M58 134h1.001v1H58zM57 134h1v1h-1zM56 134h1v1h-1z" transform="matrix(15 0 0 15 -480 -1725)"/><path d="M345 285h15v15h-15z"/><path style="fill:#fbf236" d="M54 134h1v1h-1zM53 134h1v1h-1zM52 134h1v1h-1zM51 134h1v1h-1z" transform="matrix(15 0 0 15 -480 -1725)"/><path d="M270 285h15v15h-15z"/><path style="fill:#fff" d="M49 134h1.001v1H49z" transform="matrix(15 0 0 15 -480 -1725)"/><path d="M240 285h15v15h-15zM570 270h15v15h-15z"/><path style="fill:#df7126" d="M69 135h1v1h-1zM68 135h1v1h-1z" transform="matrix(15 0 0 15 -480 -1755)"/><path style="fill:#fbf236" d="M67 135h1.001v1H67zM66 135h1v1h-1z" transform="matrix(15 0 0 15 -480 -1755)"/><path d="M495 270h15v15h-15z"/><path style="fill:#fff" d="M64 135h1v1h-1z" transform="matrix(15 0 0 15 -480 -1755)"/><path style="fill:#fbf236" d="M63 135h1v1h-1zM62 135h1v1h-1zM61 135h1v1h-1z" transform="matrix(15 0 0 15 -480 -1755)"/><path style="fill:#fff" d="M60 135h1v1h-1zM59 135h1v1h-1z" transform="matrix(15 0 0 15 -480 -1755)"/><path style="fill:#fff" d="M58 135h1.001v1H58z" transform="matrix(15 0 0 15 -480 -1755)"/><path style="fill:#fbf236" d="M57 135h1v1h-1zM56 135h1v1h-1z" transform="matrix(15 0 0 15 -480 -1755)"/><path d="M345 270h15v15h-15z"/><path style="fill:#fbf236" d="M54 135h1v1h-1zM53 135h1v1h-1zM52 135h1v1h-1zM51 135h1v1h-1z" transform="matrix(15 0 0 15 -480 -1755)"/><path d="M270 270h15v15h-15z"/><path style="fill:#fff" d="M49 135h1.001v1H49z" transform="matrix(15 0 0 15 -480 -1755)"/><path d="M240 270h15v15h-15zM570 255h15v15h-15z"/><path style="fill:#df7126" d="M69 136h1v1h-1zM68 136h1v1h-1z" transform="matrix(15 0 0 15 -480 -1785)"/><path style="fill:#fbf236" d="M67 136h1.001v1H67zM66 136h1v1h-1z" transform="matrix(15 0 0 15 -480 -1785)"/><path d="M495 255h15v15h-15z"/><path style="fill:#fff" d="M64 136h1v1h-1zM63 136h1v1h-1z" transform="matrix(15 0 0 15 -480 -1785)"/><path style="fill:#fbf236" d="M62 136h1v1h-1zM61 136h1v1h-1zM60 136h1v1h-1z" transform="matrix(15 0 0 15 -480 -1785)"/><path style="fill:#fff" d="M59 136h1v1h-1z" transform="matrix(15 0 0 15 -480 -1785)"/><path style="fill:#fff" d="M58 136h1.001v1H58zM57 136h1v1h-1z" transform="matrix(15 0 0 15 -480 -1785)"/><path style="fill:#fbf236" d="M56 136h1v1h-1z" transform="matrix(15 0 0 15 -480 -1785)"/><path d="M345 255h15v15h-15z"/><path style="fill:#fbf236" d="M54 136h1v1h-1zM53 136h1v1h-1zM52 136h1v1h-1zM51 136h1v1h-1z" transform="matrix(15 0 0 15 -480 -1785)"/><path d="M270 255h15v15h-15z"/><path style="fill:#fff" d="M49 136h1.001v1H49z" transform="matrix(15 0 0 15 -480 -1785)"/><path d="M240 255h15v15h-15zM570 240h15v15h-15z"/><path style="fill:#df7126" d="M69 137h1v1h-1zM68 137h1v1h-1z" transform="matrix(15 0 0 15 -480 -1815)"/><path style="fill:#fbf236" d="M67 137h1.001v1H67zM66 137h1v1h-1z" transform="matrix(15 0 0 15 -480 -1815)"/><path d="M495 240h15v15h-15z"/><path style="fill:#fbf236" d="M64 137h1v1h-1z" transform="matrix(15 0 0 15 -480 -1815)"/><path style="fill:#fff" d="M63 137h1v1h-1zM62 137h1v1h-1z" transform="matrix(15 0 0 15 -480 -1815)"/><path style="fill:#fbf236" d="M61 137h1v1h-1zM60 137h1v1h-1zM59 137h1v1h-1z" transform="matrix(15 0 0 15 -480 -1815)"/><path style="fill:#fff" d="M58 137h1.001v1H58zM57 137h1v1h-1zM56 137h1v1h-1z" transform="matrix(15 0 0 15 -480 -1815)"/><path d="M345 240h15v15h-15z"/><path style="fill:#fbf236" d="M54 137h1v1h-1z" transform="matrix(15 0 0 15 -480 -1815)"/><path d="M315 240h15v15h-15z"/><path style="fill:#fbf236" d="M52 137h1v1h-1zM51 137h1v1h-1z" transform="matrix(15 0 0 15 -480 -1815)"/><path d="M270 240h15v15h-15z"/><path style="fill:#fff" d="M49 137h1.001v1H49z" transform="matrix(15 0 0 15 -480 -1815)"/><path d="M240 240h15v15h-15zM570 225h15v15h-15z"/><path style="fill:#df7126" d="M69 138h1v1h-1zM68 138h1v1h-1z" transform="matrix(15 0 0 15 -480 -1845)"/><path style="fill:#fbf236" d="M67 138h1.001v1H67zM66 138h1v1h-1z" transform="matrix(15 0 0 15 -480 -1845)"/><path d="M495 225h15v15h-15z"/><path style="fill:#fbf236" d="M64 138h1v1h-1zM63 138h1v1h-1z" transform="matrix(15 0 0 15 -480 -1845)"/><path style="fill:#fff" d="M62 138h1v1h-1zM61 138h1v1h-1z" transform="matrix(15 0 0 15 -480 -1845)"/><path d="M420 225h15v15h-15zM405 225h15v15h-15z"/><path d="M390 225h15.015v15H390zM375 225h15v15h-15zM360 225h15v15h-15zM345 225h15v15h-15z"/><path style="fill:#fbf236" d="M54 138h1v1h-1z" transform="matrix(15 0 0 15 -480 -1845)"/><path d="M315 225h15v15h-15z"/><path style="fill:#fbf236" d="M52 138h1v1h-1zM51 138h1v1h-1z" transform="matrix(15 0 0 15 -480 -1845)"/><path d="M270 225h15v15h-15z"/><path style="fill:#fff" d="M49 138h1.001v1H49z" transform="matrix(15 0 0 15 -480 -1845)"/><path d="M240 225h15v15h-15zM570 209.985h15V225h-15z"/><path style="fill:#df7126" d="M69 139h1v1.001h-1zM68 139h1v1.001h-1z" transform="matrix(15 0 0 15 -480 -1875.015)"/><path style="fill:#fbf236" d="M67 139h1.001v1.001H67zM66 139h1v1.001h-1z" transform="matrix(15 0 0 15 -480 -1875.015)"/><path d="M495 209.985h15V225h-15z"/><path style="fill:#fbf236" d="M64 139h1v1.001h-1zM63 139h1v1.001h-1zM62 139h1v1.001h-1z" transform="matrix(15 0 0 15 -480 -1875.015)"/><path style="fill:#fff" d="M61 139h1v1.001h-1zM60 139h1v1.001h-1z" transform="matrix(15 0 0 15 -480 -1875.015)"/><path style="fill:#fbf236" d="M59 139h1v1.001h-1z" transform="matrix(15 0 0 15 -480 -1875.015)"/><path style="fill:#fbf236" d="M58 139h1.001v1.001H58zM57 139h1v1.001h-1z" transform="matrix(15 0 0 15 -480 -1875.015)"/><path style="fill:#fff" d="M56 139h1v1.001h-1z" transform="matrix(15 0 0 15 -480 -1875.015)"/><path d="M345 209.985h15V225h-15z"/><path style="fill:#fff" d="M54 139h1v1.001h-1z" transform="matrix(15 0 0 15 -480 -1875.015)"/><path d="M315 209.985h15V225h-15zM300 209.985h15V225h-15z"/><path style="fill:#fbf236" d="M51 139h1v1.001h-1z" transform="matrix(15 0 0 15 -480 -1875.015)"/><path d="M270 209.985h15V225h-15z"/><path style="fill:#fff" d="M49 139h1.001v1.001H49z" transform="matrix(15 0 0 15 -480 -1875.015)"/><path d="M240 209.985h15V225h-15zM570 195h15v15h-15z"/><path style="fill:#df7126" d="M69 140h1v1h-1zM68 140h1v1h-1z" transform="matrix(15 0 0 15 -480 -1905)"/><path style="fill:#fbf236" d="M67 140h1.001v1H67zM66 140h1v1h-1z" transform="matrix(15 0 0 15 -480 -1905)"/><path d="M495 195h15v15h-15z"/><path style="fill:#fbf236" d="M64 140h1v1h-1zM63 140h1v1h-1zM62 140h1v1h-1zM61 140h1v1h-1z" transform="matrix(15 0 0 15 -480 -1905)"/><path style="fill:#fff" d="M60 140h1v1h-1zM59 140h1v1h-1z" transform="matrix(15 0 0 15 -480 -1905)"/><path style="fill:#fbf236" d="M58 140h1.001v1H58zM57 140h1v1h-1zM56 140h1v1h-1z" transform="matrix(15 0 0 15 -480 -1905)"/><path d="M345 195h15v15h-15z"/><path style="fill:#fff" d="M54 140h1v1h-1z" transform="matrix(15 0 0 15 -480 -1905)"/><path d="M315 195h15v15h-15z"/><path style="fill:#fbf236" d="M52 140h1v1h-1z" transform="matrix(15 0 0 15 -480 -1905)"/><path d="M285 195h15v15h-15zM270 195h15v15h-15z"/><path style="fill:#fff" d="M49 140h1.001v1H49z" transform="matrix(15 0 0 15 -480 -1905)"/><path d="M240 195h15v15h-15zM570 180h15v15h-15z"/><path style="fill:#df7126" d="M69 141h1v1h-1zM68 141h1v1h-1z" transform="matrix(15 0 0 15 -480 -1935)"/><path style="fill:#fbf236" d="M67 141h1.001v1H67zM66 141h1v1h-1z" transform="matrix(15 0 0 15 -480 -1935)"/><path d="M495 180h15v15h-15z"/><path style="fill:#fbf236" d="M64 141h1v1h-1zM63 141h1v1h-1zM62 141h1v1h-1zM61 141h1v1h-1zM60 141h1v1h-1z" transform="matrix(15 0 0 15 -480 -1935)"/><path style="fill:#fff" d="M59 141h1v1h-1z" transform="matrix(15 0 0 15 -480 -1935)"/><path style="fill:#fff" d="M58 141h1.001v1H58z" transform="matrix(15 0 0 15 -480 -1935)"/><path style="fill:#fbf236" d="M57 141h1v1h-1zM56 141h1v1h-1z" transform="matrix(15 0 0 15 -480 -1935)"/><path d="M345 180h15v15h-15z"/><path style="fill:#fff" d="M54 141h1v1h-1z" transform="matrix(15 0 0 15 -480 -1935)"/><path d="M315 180h15v15h-15z"/><path style="fill:#fff" d="M52 141h1v1h-1z" transform="matrix(15 0 0 15 -480 -1935)"/><path style="fill:#fbf236" d="M51 141h1v1h-1z" transform="matrix(15 0 0 15 -480 -1935)"/><path d="M270 180h15v15h-15z"/><path style="fill:#fff" d="M49 141h1.001v1H49z" transform="matrix(15 0 0 15 -480 -1935)"/><path d="M240 180h15v15h-15zM570 165h15v15h-15z"/><path style="fill:#df7126" d="M69 142h1v1h-1zM68 142h1v1h-1z" transform="matrix(15 0 0 15 -480 -1965)"/><path style="fill:#fbf236" d="M67 142h1.001v1H67zM66 142h1v1h-1z" transform="matrix(15 0 0 15 -480 -1965)"/><path d="M495 165h15v15h-15z"/><path style="fill:#fbf236" d="M64 142h1v1h-1zM63 142h1v1h-1zM62 142h1v1h-1zM61 142h1v1h-1zM60 142h1v1h-1zM59 142h1v1h-1z" transform="matrix(15 0 0 15 -480 -1965)"/><path style="fill:#fff" d="M58 142h1.001v1H58zM57 142h1v1h-1z" transform="matrix(15 0 0 15 -480 -1965)"/><path style="fill:#fbf236" d="M56 142h1v1h-1z" transform="matrix(15 0 0 15 -480 -1965)"/><path d="M345 165h15v15h-15z"/><path style="fill:#fbf236" d="M54 142h1v1h-1z" transform="matrix(15 0 0 15 -480 -1965)"/><path d="M315 165h15v15h-15z"/><path style="fill:#fff" d="M52 142h1v1h-1zM51 142h1v1h-1z" transform="matrix(15 0 0 15 -480 -1965)"/><path d="M270 165h15v15h-15z"/><path style="fill:#fff" d="M49 142h1.001v1H49z" transform="matrix(15 0 0 15 -480 -1965)"/><path d="M240 165h15v15h-15zM570 150h15v15h-15z"/><path style="fill:#df7126" d="M69 143h1v1h-1z" transform="matrix(15 0 0 15 -480 -1995)"/><path d="M540 150h15v15h-15z"/><path d="M525 150h15.015v15H525z"/><path style="fill:#fbf236" d="M66 143h1v1h-1z" transform="matrix(15 0 0 15 -480 -1995)"/><path d="M495 150h15v15h-15z"/><path style="fill:#fbf236" d="M64 143h1v1h-1zM63 143h1v1h-1zM62 143h1v1h-1zM61 143h1v1h-1zM60 143h1v1h-1zM59 143h1v1h-1z" transform="matrix(15 0 0 15 -480 -1995)"/><path style="fill:#fbf236" d="M58 143h1.001v1H58z" transform="matrix(15 0 0 15 -480 -1995)"/><path style="fill:#fff" d="M57 143h1v1h-1zM56 143h1v1h-1z" transform="matrix(15 0 0 15 -480 -1995)"/><path d="M345 150h15v15h-15z"/><path style="fill:#fbf236" d="M54 143h1v1h-1z" transform="matrix(15 0 0 15 -480 -1995)"/><path d="M315 150h15v15h-15z"/><path style="fill:#fff" d="M52 143h1v1h-1zM51 143h1v1h-1zM50 143h1v1h-1z" transform="matrix(15 0 0 15 -480 -1995)"/><path style="fill:#fff" d="M49 143h1.001v1H49z" transform="matrix(15 0 0 15 -480 -1995)"/><path d="M240 150h15v15h-15zM570 135h15v15h-15z"/><path style="fill:#df7126" d="M69 144h1v1h-1zM68 144h1v1h-1z" transform="matrix(15 0 0 15 -480 -2025)"/><path style="fill:#fbf236" d="M67 144h1.001v1H67z" transform="matrix(15 0 0 15 -480 -2025)"/><path d="M510 135h15v15h-15zM495 135h15v15h-15z"/><path style="fill:#fbf236" d="M64 144h1v1h-1zM63 144h1v1h-1zM62 144h1v1h-1zM61 144h1v1h-1zM60 144h1v1h-1zM59 144h1v1h-1z" transform="matrix(15 0 0 15 -480 -2025)"/><path style="fill:#fbf236" d="M58 144h1.001v1H58zM57 144h1v1h-1z" transform="matrix(15 0 0 15 -480 -2025)"/><path style="fill:#fff" d="M56 144h1v1h-1z" transform="matrix(15 0 0 15 -480 -2025)"/><path d="M345 135h15v15h-15z"/><path style="fill:#fbf236" d="M54 144h1v1h-1z" transform="matrix(15 0 0 15 -480 -2025)"/><path d="M315 135h15v15h-15z"/><path style="fill:#fbf236" d="M52 144h1v1h-1z" transform="matrix(15 0 0 15 -480 -2025)"/><path style="fill:#fff" d="M51 144h1v1h-1zM50 144h1v1h-1z" transform="matrix(15 0 0 15 -480 -2025)"/><path style="fill:#fff" d="M49 144h1.001v1H49z" transform="matrix(15 0 0 15 -480 -2025)"/><path d="M240 135h15v15h-15zM555 120h15v15h-15z"/><path style="fill:#fff" d="M68 145h1v1h-1z" transform="matrix(15 0 0 15 -480 -2055)"/><path style="fill:#fff" d="M67 145h1.001v1H67z" transform="matrix(15 0 0 15 -480 -2055)"/><path style="fill:#fbf236" d="M66 145h1v1h-1zM65 145h1v1h-1z" transform="matrix(15 0 0 15 -480 -2055)"/><path d="M480 120h15v15h-15zM465 120h15v15h-15z"/><path style="fill:#fbf236" d="M62 145h1v1h-1zM61 145h1v1h-1zM60 145h1v1h-1zM59 145h1v1h-1z" transform="matrix(15 0 0 15 -480 -2055)"/><path style="fill:#fbf236" d="M58 145h1.001v1H58zM57 145h1v1h-1zM56 145h1v1h-1z" transform="matrix(15 0 0 15 -480 -2055)"/><path d="M345 120h15v15h-15z"/><path style="fill:#fff" d="M54 145h1v1h-1z" transform="matrix(15 0 0 15 -480 -2055)"/><path d="M315 120h15v15h-15z"/><path style="fill:#fbf236" d="M52 145h1v1h-1z" transform="matrix(15 0 0 15 -480 -2055)"/><path style="fill:#fff" d="M51 145h1v1h-1zM50 145h1v1h-1z" transform="matrix(15 0 0 15 -480 -2055)"/><path d="M255 120h15.015v15H255zM540 105h15v15h-15z"/><path d="M525 105h15.015v15H525z"/><path style="fill:#fff" d="M66 146h1v1h-1zM65 146h1v1h-1z" transform="matrix(15 0 0 15 -480 -2085)"/><path style="fill:#fbf236" d="M64 146h1v1h-1zM63 146h1v1h-1z" transform="matrix(15 0 0 15 -480 -2085)"/><path d="M450 105h15v15h-15zM435 105h15v15h-15z"/><path style="fill:#fbf236" d="M60 146h1v1h-1zM59 146h1v1h-1z" transform="matrix(15 0 0 15 -480 -2085)"/><path style="fill:#fbf236" d="M58 146h1.001v1H58z" transform="matrix(15 0 0 15 -480 -2085)"/><path d="M375 105h15v15h-15zM360 105h15v15h-15z"/><path style="fill:#fbf236" d="M55 146h1v1h-1z" transform="matrix(15 0 0 15 -480 -2085)"/><path style="fill:#fff" d="M54 146h1v1h-1zM53 146h1v1h-1zM52 146h1v1h-1z" transform="matrix(15 0 0 15 -480 -2085)"/><path d="M285 105h15v15h-15zM270 105h15v15h-15zM510 90h15v15h-15zM495 90h15v15h-15z"/><path style="fill:#fff" d="M64 147h1v1h-1zM63 147h1v1h-1z" transform="matrix(15 0 0 15 -480 -2115)"/><path style="fill:#fbf236" d="M62 147h1v1h-1zM61 147h1v1h-1z" transform="matrix(15 0 0 15 -480 -2115)"/><path d="M420 90h15v15h-15zM405 90h15v15h-15z"/><path d="M390 90h15.015v15H390z"/><path style="fill:#fbf236" d="M57 147h1v1h-1zM56 147h1v1h-1z" transform="matrix(15 0 0 15 -480 -2115)"/><path style="fill:#fff" d="M55 147h1v1h-1zM54 147h1v1h-1z" transform="matrix(15 0 0 15 -480 -2115)"/><path d="M315 90h15v15h-15zM300 90h15v15h-15zM480 74.985h15V90h-15zM465 74.985h15V90h-15z"/><path style="fill:#fff" d="M62 148h1v1.001h-1zM61 148h1v1.001h-1z" transform="matrix(15 0 0 15 -480 -2145.015)"/><path style="fill:#fbf236" d="M60 148h1v1.001h-1zM59 148h1v1.001h-1z" transform="matrix(15 0 0 15 -480 -2145.015)"/><path style="fill:#fbf236" d="M58 148h1.001v1.001H58z" transform="matrix(15 0 0 15 -480 -2145.015)"/><path style="fill:#fff" d="M57 148h1v1.001h-1zM56 148h1v1.001h-1z" transform="matrix(15 0 0 15 -480 -2145.015)"/><path d="M345 74.985h15V90h-15zM330 74.985h15V90h-15zM450 60h15v15h-15zM435 60h15v15h-15z"/><path style="fill:#fff" d="M60 149h1v1h-1zM59 149h1v1h-1z" transform="matrix(15 0 0 15 -480 -2175)"/><path style="fill:#fff" d="M58 149h1.001v1H58z" transform="matrix(15 0 0 15 -480 -2175)"/><path d="M375 60h15v15h-15zM360 60h15v15h-15zM420 45h15v15h-15zM405 45h15v15h-15z"/><path d="M390 45h15.015v15H390z"/></g></svg>